<?xml version="1.0" encoding="UTF-8"?>
<!DOCTYPE svg PUBLIC "-//W3C//DTD SVG 1.1//EN" "http://www.w3.org/Graphics/SVG/1.1/DTD/svg11.dtd">
<svg xmlns="http://www.w3.org/2000/svg" version="1.1" width="512px" height="512px" style="shape-rendering:geometricPrecision; text-rendering:geometricPrecision; image-rendering:optimizeQuality; fill-rule:evenodd; clip-rule:evenodd" xmlns:xlink="http://www.w3.org/1999/xlink">
<g><path style="opacity:0.987" fill="#FFFFFF" d="M 209.5,-0.5 C 221.5,-0.5 233.5,-0.5 245.5,-0.5C 324.89,8.59203 385.057,47.2587 426,115.5C 461.36,183.729 463.693,253.063 433,323.5C 428.546,332.244 423.713,340.744 418.5,349C 450.091,380.09 481.091,411.59 511.5,443.5C 511.5,447.5 511.5,451.5 511.5,455.5C 493.137,474.864 474.137,493.53 454.5,511.5C 450.833,511.5 447.167,511.5 443.5,511.5C 442.4,510.442 441.066,509.608 439.5,509C 409.32,478.653 378.986,448.486 348.5,418.5C 280.744,459.095 210.078,464.929 136.5,436C 56.8348,398.48 11.1681,335.98 -0.5,248.5C -0.5,233.833 -0.5,219.167 -0.5,204.5C 11.2408,119.829 55.2408,58.3289 131.5,20C 156.517,8.93034 182.517,2.09701 209.5,-0.5 Z M 222.5,64.5 C 292.174,66.7451 342.674,98.7451 374,160.5C 398.02,219.641 391.353,274.974 354,326.5C 305.645,382.221 245.812,400.054 174.5,380C 117.758,358.592 82.2578,318.425 68,259.5C 57.1425,191.751 78.6425,136.918 132.5,95C 159.685,76.3276 189.685,66.161 222.5,64.5 Z"/></g>
</svg>
