<svg width="76" height="76" viewBox="0 0 76 76" fill="none" xmlns="http://www.w3.org/2000/svg">
<path d="M38 76C48.0782 76 57.7437 71.9964 64.8701 64.8701C71.9964 57.7437 76 48.0782 76 38C76 27.9218 71.9964 18.2563 64.8701 11.1299C57.7437 4.00356 48.0782 0 38 0C27.9218 0 18.2563 4.00356 11.1299 11.1299C4.00356 18.2563 0 27.9218 0 38C0 48.0782 4.00356 57.7437 11.1299 64.8701C18.2563 71.9964 27.9218 76 38 76ZM54.7734 31.0234L35.7734 50.0234C34.3781 51.4188 32.1219 51.4188 30.7414 50.0234L21.2414 40.5234C19.8461 39.1281 19.8461 36.8719 21.2414 35.4914C22.6367 34.1109 24.893 34.0961 26.2734 35.4914L33.25 42.468L49.7266 25.9766C51.1219 24.5812 53.3781 24.5812 54.7586 25.9766C56.1391 27.3719 56.1539 29.6281 54.7586 31.0086L54.7734 31.0234Z" fill="#65D863"/>
</svg>
